ISO-10303-21;
HEADER;
/* Generated by software containing ST-Developer
 * from STEP Tools, Inc. (www.steptools.com) 
 */

FILE_DESCRIPTION(
/* description */ (''),
/* implementation_level */ '2;1');

FILE_NAME(
/* name */ 'body.step',
/* time_stamp */ '2026-09-25T20:24:50+03:00',
/* author */ (''),
/* organization */ (''),
/* preprocessor_version */ 'ST-DEVELOPER v20.2',
/* originating_system */ 'Autodesk Translation Framework v15.15.0.0',
/* authorisation */ '');

FILE_SCHEMA (('AUTOMOTIVE_DESIGN { 1 0 10303 214 3 1 1 }'));
ENDSEC;

DATA;
#10=MECHANICAL_DESIGN_GEOMETRIC_PRESENTATION_REPRESENTATION('',(#13),#849);
#11=SHAPE_REPRESENTATION_RELATIONSHIP('SRR','None',#856,#12);
#12=ADVANCED_BREP_SHAPE_REPRESENTATION('',(#14),#848);
#13=STYLED_ITEM('',(#865),#14);
#14=MANIFOLD_SOLID_BREP('Body1',#509);
#15=FACE_BOUND('',#92,.T.);
#16=FACE_BOUND('',#95,.T.);
#17=FACE_BOUND('',#98,.T.);
#18=FACE_BOUND('',#101,.T.);
#19=FACE_BOUND('',#110,.T.);
#20=FACE_BOUND('',#111,.T.);
#21=FACE_BOUND('',#112,.T.);
#22=FACE_BOUND('',#113,.T.);
#23=FACE_BOUND('',#115,.T.);
#24=FACE_BOUND('',#116,.T.);
#25=FACE_BOUND('',#117,.T.);
#26=FACE_BOUND('',#118,.T.);
#27=CIRCLE('',#531,1.7);
#28=CIRCLE('',#532,1.7);
#29=CIRCLE('',#534,1.7);
#30=CIRCLE('',#535,1.7);
#31=CIRCLE('',#537,1.7);
#32=CIRCLE('',#538,1.7);
#33=CIRCLE('',#540,1.7);
#34=CIRCLE('',#541,1.7);
#35=CIRCLE('',#543,2.25);
#36=CIRCLE('',#544,2.25);
#37=CIRCLE('',#547,2.25);
#38=CIRCLE('',#548,2.25);
#39=CIRCLE('',#551,2.25);
#40=CIRCLE('',#552,2.25);
#41=CIRCLE('',#555,2.25);
#42=CIRCLE('',#556,2.25);
#43=CYLINDRICAL_SURFACE('',#530,1.7);
#44=CYLINDRICAL_SURFACE('',#533,1.7);
#45=CYLINDRICAL_SURFACE('',#536,1.7);
#46=CYLINDRICAL_SURFACE('',#539,1.7);
#47=CYLINDRICAL_SURFACE('',#542,2.25);
#48=CYLINDRICAL_SURFACE('',#546,2.25);
#49=CYLINDRICAL_SURFACE('',#550,2.25);
#50=CYLINDRICAL_SURFACE('',#554,2.25);
#51=FACE_OUTER_BOUND('',#79,.T.);
#52=FACE_OUTER_BOUND('',#80,.T.);
#53=FACE_OUTER_BOUND('',#81,.T.);
#54=FACE_OUTER_BOUND('',#82,.T.);
#55=FACE_OUTER_BOUND('',#83,.T.);
#56=FACE_OUTER_BOUND('',#84,.T.);
#57=FACE_OUTER_BOUND('',#85,.T.);
#58=FACE_OUTER_BOUND('',#86,.T.);
#59=FACE_OUTER_BOUND('',#87,.T.);
#60=FACE_OUTER_BOUND('',#88,.T.);
#61=FACE_OUTER_BOUND('',#89,.T.);
#62=FACE_OUTER_BOUND('',#90,.T.);
#63=FACE_OUTER_BOUND('',#91,.T.);
#64=FACE_OUTER_BOUND('',#93,.T.);
#65=FACE_OUTER_BOUND('',#94,.T.);
#66=FACE_OUTER_BOUND('',#96,.T.);
#67=FACE_OUTER_BOUND('',#97,.T.);
#68=FACE_OUTER_BOUND('',#99,.T.);
#69=FACE_OUTER_BOUND('',#100,.T.);
#70=FACE_OUTER_BOUND('',#102,.T.);
#71=FACE_OUTER_BOUND('',#103,.T.);
#72=FACE_OUTER_BOUND('',#104,.T.);
#73=FACE_OUTER_BOUND('',#105,.T.);
#74=FACE_OUTER_BOUND('',#106,.T.);
#75=FACE_OUTER_BOUND('',#107,.T.);
#76=FACE_OUTER_BOUND('',#108,.T.);
#77=FACE_OUTER_BOUND('',#109,.T.);
#78=FACE_OUTER_BOUND('',#114,.T.);
#79=EDGE_LOOP('',(#329,#330,#331,#332,#333,#334));
#80=EDGE_LOOP('',(#335,#336,#337,#338,#339,#340));
#81=EDGE_LOOP('',(#341,#342,#343,#344));
#82=EDGE_LOOP('',(#345,#346,#347,#348));
#83=EDGE_LOOP('',(#349,#350,#351,#352,#353,#354,#355,#356));
#84=EDGE_LOOP('',(#357,#358,#359,#360));
#85=EDGE_LOOP('',(#361,#362,#363,#364));
#86=EDGE_LOOP('',(#365,#366,#367,#368));
#87=EDGE_LOOP('',(#369,#370,#371,#372));
#88=EDGE_LOOP('',(#373,#374,#375,#376));
#89=EDGE_LOOP('',(#377,#378,#379,#380));
#90=EDGE_LOOP('',(#381,#382,#383,#384));
#91=EDGE_LOOP('',(#385));
#92=EDGE_LOOP('',(#386));
#93=EDGE_LOOP('',(#387,#388,#389,#390));
#94=EDGE_LOOP('',(#391));
#95=EDGE_LOOP('',(#392));
#96=EDGE_LOOP('',(#393,#394,#395,#396));
#97=EDGE_LOOP('',(#397));
#98=EDGE_LOOP('',(#398));
#99=EDGE_LOOP('',(#399,#400,#401,#402));
#100=EDGE_LOOP('',(#403));
#101=EDGE_LOOP('',(#404));
#102=EDGE_LOOP('',(#405,#406,#407,#408,#409,#410,#411,#412));
#103=EDGE_LOOP('',(#413,#414,#415,#416));
#104=EDGE_LOOP('',(#417,#418,#419,#420));
#105=EDGE_LOOP('',(#421,#422,#423,#424));
#106=EDGE_LOOP('',(#425,#426,#427,#428));
#107=EDGE_LOOP('',(#429,#430,#431,#432));
#108=EDGE_LOOP('',(#433,#434,#435,#436));
#109=EDGE_LOOP('',(#437,#438,#439,#440,#441,#442,#443,#444,#445,#446,#447,
#448));
#110=EDGE_LOOP('',(#449));
#111=EDGE_LOOP('',(#450));
#112=EDGE_LOOP('',(#451));
#113=EDGE_LOOP('',(#452));
#114=EDGE_LOOP('',(#453,#454,#455,#456));
#115=EDGE_LOOP('',(#457));
#116=EDGE_LOOP('',(#458));
#117=EDGE_LOOP('',(#459));
#118=EDGE_LOOP('',(#460));
#119=LINE('',#711,#169);
#120=LINE('',#713,#170);
#121=LINE('',#715,#171);
#122=LINE('',#717,#172);
#123=LINE('',#719,#173);
#124=LINE('',#720,#174);
#125=LINE('',#724,#175);
#126=LINE('',#726,#176);
#127=LINE('',#728,#177);
#128=LINE('',#730,#178);
#129=LINE('',#732,#179);
#130=LINE('',#733,#180);
#131=LINE('',#735,#181);
#132=LINE('',#736,#182);
#133=LINE('',#738,#183);
#134=LINE('',#741,#184);
#135=LINE('',#743,#185);
#136=LINE('',#745,#186);
#137=LINE('',#747,#187);
#138=LINE('',#748,#188);
#139=LINE('',#751,#189);
#140=LINE('',#753,#190);
#141=LINE('',#754,#191);
#142=LINE('',#757,#192);
#143=LINE('',#759,#193);
#144=LINE('',#760,#194);
#145=LINE('',#765,#195);
#146=LINE('',#771,#196);
#147=LINE('',#777,#197);
#148=LINE('',#783,#198);
#149=LINE('',#789,#199);
#150=LINE('',#796,#200);
#151=LINE('',#803,#201);
#152=LINE('',#810,#202);
#153=LINE('',#815,#203);
#154=LINE('',#817,#204);
#155=LINE('',#818,#205);
#156=LINE('',#821,#206);
#157=LINE('',#822,#207);
#158=LINE('',#825,#208);
#159=LINE('',#826,#209);
#160=LINE('',#828,#210);
#161=LINE('',#831,#211);
#162=LINE('',#833,#212);
#163=LINE('',#834,#213);
#164=LINE('',#837,#214);
#165=LINE('',#839,#215);
#166=LINE('',#840,#216);
#167=LINE('',#842,#217);
#168=LINE('',#843,#218);
#169=VECTOR('',#571,10.);
#170=VECTOR('',#572,10.);
#171=VECTOR('',#573,10.);
#172=VECTOR('',#574,10.);
#173=VECTOR('',#575,10.);
#174=VECTOR('',#576,10.);
#175=VECTOR('',#579,10.);
#176=VECTOR('',#580,10.);
#177=VECTOR('',#581,10.);
#178=VECTOR('',#582,10.);
#179=VECTOR('',#583,10.);
#180=VECTOR('',#584,10.);
#181=VECTOR('',#587,10.);
#182=VECTOR('',#588,10.);
#183=VECTOR('',#591,10.);
#184=VECTOR('',#594,10.);
#185=VECTOR('',#595,10.);
#186=VECTOR('',#596,10.);
#187=VECTOR('',#597,10.);
#188=VECTOR('',#598,10.);
#189=VECTOR('',#601,10.);
#190=VECTOR('',#602,10.);
#191=VECTOR('',#603,10.);
#192=VECTOR('',#606,10.);
#193=VECTOR('',#607,10.);
#194=VECTOR('',#608,10.);
#195=VECTOR('',#613,1.7);
#196=VECTOR('',#620,1.7);
#197=VECTOR('',#627,1.7);
#198=VECTOR('',#634,1.7);
#199=VECTOR('',#641,2.25);
#200=VECTOR('',#650,2.25);
#201=VECTOR('',#659,2.25);
#202=VECTOR('',#668,2.25);
#203=VECTOR('',#675,10.);
#204=VECTOR('',#676,10.);
#205=VECTOR('',#677,10.);
#206=VECTOR('',#680,10.);
#207=VECTOR('',#681,10.);
#208=VECTOR('',#684,10.);
#209=VECTOR('',#685,10.);
#210=VECTOR('',#688,10.);
#211=VECTOR('',#691,10.);
#212=VECTOR('',#692,10.);
#213=VECTOR('',#693,10.);
#214=VECTOR('',#696,10.);
#215=VECTOR('',#697,10.);
#216=VECTOR('',#698,10.);
#217=VECTOR('',#701,10.);
#218=VECTOR('',#702,10.);
#219=VERTEX_POINT('',#709);
#220=VERTEX_POINT('',#710);
#221=VERTEX_POINT('',#712);
#222=VERTEX_POINT('',#714);
#223=VERTEX_POINT('',#716);
#224=VERTEX_POINT('',#718);
#225=VERTEX_POINT('',#722);
#226=VERTEX_POINT('',#723);
#227=VERTEX_POINT('',#725);
#228=VERTEX_POINT('',#727);
#229=VERTEX_POINT('',#729);
#230=VERTEX_POINT('',#731);
#231=VERTEX_POINT('',#740);
#232=VERTEX_POINT('',#742);
#233=VERTEX_POINT('',#744);
#234=VERTEX_POINT('',#746);
#235=VERTEX_POINT('',#750);
#236=VERTEX_POINT('',#752);
#237=VERTEX_POINT('',#756);
#238=VERTEX_POINT('',#758);
#239=VERTEX_POINT('',#762);
#240=VERTEX_POINT('',#764);
#241=VERTEX_POINT('',#768);
#242=VERTEX_POINT('',#770);
#243=VERTEX_POINT('',#774);
#244=VERTEX_POINT('',#776);
#245=VERTEX_POINT('',#780);
#246=VERTEX_POINT('',#782);
#247=VERTEX_POINT('',#786);
#248=VERTEX_POINT('',#788);
#249=VERTEX_POINT('',#793);
#250=VERTEX_POINT('',#795);
#251=VERTEX_POINT('',#800);
#252=VERTEX_POINT('',#802);
#253=VERTEX_POINT('',#807);
#254=VERTEX_POINT('',#809);
#255=VERTEX_POINT('',#814);
#256=VERTEX_POINT('',#816);
#257=VERTEX_POINT('',#820);
#258=VERTEX_POINT('',#824);
#259=VERTEX_POINT('',#830);
#260=VERTEX_POINT('',#832);
#261=VERTEX_POINT('',#836);
#262=VERTEX_POINT('',#838);
#263=EDGE_CURVE('',#219,#220,#119,.T.);
#264=EDGE_CURVE('',#221,#219,#120,.T.);
#265=EDGE_CURVE('',#222,#221,#121,.T.);
#266=EDGE_CURVE('',#222,#223,#122,.T.);
#267=EDGE_CURVE('',#223,#224,#123,.T.);
#268=EDGE_CURVE('',#220,#224,#124,.T.);
#269=EDGE_CURVE('',#225,#226,#125,.T.);
#270=EDGE_CURVE('',#227,#225,#126,.T.);
#271=EDGE_CURVE('',#227,#228,#127,.T.);
#272=EDGE_CURVE('',#229,#228,#128,.T.);
#273=EDGE_CURVE('',#230,#229,#129,.T.);
#274=EDGE_CURVE('',#226,#230,#130,.T.);
#275=EDGE_CURVE('',#229,#222,#131,.T.);
#276=EDGE_CURVE('',#228,#223,#132,.T.);
#277=EDGE_CURVE('',#224,#227,#133,.T.);
#278=EDGE_CURVE('',#231,#221,#134,.T.);
#279=EDGE_CURVE('',#232,#231,#135,.T.);
#280=EDGE_CURVE('',#232,#233,#136,.T.);
#281=EDGE_CURVE('',#233,#234,#137,.T.);
#282=EDGE_CURVE('',#230,#234,#138,.T.);
#283=EDGE_CURVE('',#220,#235,#139,.T.);
#284=EDGE_CURVE('',#235,#236,#140,.T.);
#285=EDGE_CURVE('',#219,#236,#141,.T.);
#286=EDGE_CURVE('',#237,#226,#142,.T.);
#287=EDGE_CURVE('',#238,#237,#143,.T.);
#288=EDGE_CURVE('',#238,#225,#144,.T.);
#289=EDGE_CURVE('',#239,#239,#27,.T.);
#290=EDGE_CURVE('',#239,#240,#145,.T.);
#291=EDGE_CURVE('',#240,#240,#28,.T.);
#292=EDGE_CURVE('',#241,#241,#29,.T.);
#293=EDGE_CURVE('',#241,#242,#146,.T.);
#294=EDGE_CURVE('',#242,#242,#30,.T.);
#295=EDGE_CURVE('',#243,#243,#31,.T.);
#296=EDGE_CURVE('',#243,#244,#147,.T.);
#297=EDGE_CURVE('',#244,#244,#32,.T.);
#298=EDGE_CURVE('',#245,#245,#33,.T.);
#299=EDGE_CURVE('',#245,#246,#148,.T.);
#300=EDGE_CURVE('',#246,#246,#34,.T.);
#301=EDGE_CURVE('',#247,#247,#35,.T.);
#302=EDGE_CURVE('',#247,#248,#149,.T.);
#303=EDGE_CURVE('',#248,#248,#36,.T.);
#304=EDGE_CURVE('',#249,#249,#37,.T.);
#305=EDGE_CURVE('',#249,#250,#150,.T.);
#306=EDGE_CURVE('',#250,#250,#38,.T.);
#307=EDGE_CURVE('',#251,#251,#39,.T.);
#308=EDGE_CURVE('',#251,#252,#151,.T.);
#309=EDGE_CURVE('',#252,#252,#40,.T.);
#310=EDGE_CURVE('',#253,#253,#41,.T.);
#311=EDGE_CURVE('',#253,#254,#152,.T.);
#312=EDGE_CURVE('',#254,#254,#42,.T.);
#313=EDGE_CURVE('',#255,#238,#153,.T.);
#314=EDGE_CURVE('',#256,#255,#154,.T.);
#315=EDGE_CURVE('',#235,#256,#155,.T.);
#316=EDGE_CURVE('',#256,#257,#156,.T.);
#317=EDGE_CURVE('',#236,#257,#157,.T.);
#318=EDGE_CURVE('',#255,#258,#158,.T.);
#319=EDGE_CURVE('',#257,#258,#159,.T.);
#320=EDGE_CURVE('',#258,#237,#160,.T.);
#321=EDGE_CURVE('',#259,#232,#161,.T.);
#322=EDGE_CURVE('',#260,#231,#162,.T.);
#323=EDGE_CURVE('',#259,#260,#163,.T.);
#324=EDGE_CURVE('',#261,#259,#164,.T.);
#325=EDGE_CURVE('',#262,#260,#165,.T.);
#326=EDGE_CURVE('',#261,#262,#166,.T.);
#327=EDGE_CURVE('',#233,#261,#167,.T.);
#328=EDGE_CURVE('',#234,#262,#168,.T.);
#329=ORIENTED_EDGE('',*,*,#263,.F.);
#330=ORIENTED_EDGE('',*,*,#264,.F.);
#331=ORIENTED_EDGE('',*,*,#265,.F.);
#332=ORIENTED_EDGE('',*,*,#266,.T.);
#333=ORIENTED_EDGE('',*,*,#267,.T.);
#334=ORIENTED_EDGE('',*,*,#268,.F.);
#335=ORIENTED_EDGE('',*,*,#269,.F.);
#336=ORIENTED_EDGE('',*,*,#270,.F.);
#337=ORIENTED_EDGE('',*,*,#271,.T.);
#338=ORIENTED_EDGE('',*,*,#272,.F.);
#339=ORIENTED_EDGE('',*,*,#273,.F.);
#340=ORIENTED_EDGE('',*,*,#274,.F.);
#341=ORIENTED_EDGE('',*,*,#275,.F.);
#342=ORIENTED_EDGE('',*,*,#272,.T.);
#343=ORIENTED_EDGE('',*,*,#276,.T.);
#344=ORIENTED_EDGE('',*,*,#266,.F.);
#345=ORIENTED_EDGE('',*,*,#277,.F.);
#346=ORIENTED_EDGE('',*,*,#267,.F.);
#347=ORIENTED_EDGE('',*,*,#276,.F.);
#348=ORIENTED_EDGE('',*,*,#271,.F.);
#349=ORIENTED_EDGE('',*,*,#273,.T.);
#350=ORIENTED_EDGE('',*,*,#275,.T.);
#351=ORIENTED_EDGE('',*,*,#265,.T.);
#352=ORIENTED_EDGE('',*,*,#278,.F.);
#353=ORIENTED_EDGE('',*,*,#279,.F.);
#354=ORIENTED_EDGE('',*,*,#280,.T.);
#355=ORIENTED_EDGE('',*,*,#281,.T.);
#356=ORIENTED_EDGE('',*,*,#282,.F.);
#357=ORIENTED_EDGE('',*,*,#263,.T.);
#358=ORIENTED_EDGE('',*,*,#283,.T.);
#359=ORIENTED_EDGE('',*,*,#284,.T.);
#360=ORIENTED_EDGE('',*,*,#285,.F.);
#361=ORIENTED_EDGE('',*,*,#269,.T.);
#362=ORIENTED_EDGE('',*,*,#286,.F.);
#363=ORIENTED_EDGE('',*,*,#287,.F.);
#364=ORIENTED_EDGE('',*,*,#288,.T.);
#365=ORIENTED_EDGE('',*,*,#289,.F.);
#366=ORIENTED_EDGE('',*,*,#290,.T.);
#367=ORIENTED_EDGE('',*,*,#291,.F.);
#368=ORIENTED_EDGE('',*,*,#290,.F.);
#369=ORIENTED_EDGE('',*,*,#292,.F.);
#370=ORIENTED_EDGE('',*,*,#293,.T.);
#371=ORIENTED_EDGE('',*,*,#294,.F.);
#372=ORIENTED_EDGE('',*,*,#293,.F.);
#373=ORIENTED_EDGE('',*,*,#295,.F.);
#374=ORIENTED_EDGE('',*,*,#296,.T.);
#375=ORIENTED_EDGE('',*,*,#297,.F.);
#376=ORIENTED_EDGE('',*,*,#296,.F.);
#377=ORIENTED_EDGE('',*,*,#298,.F.);
#378=ORIENTED_EDGE('',*,*,#299,.T.);
#379=ORIENTED_EDGE('',*,*,#300,.F.);
#380=ORIENTED_EDGE('',*,*,#299,.F.);
#381=ORIENTED_EDGE('',*,*,#301,.F.);
#382=ORIENTED_EDGE('',*,*,#302,.T.);
#383=ORIENTED_EDGE('',*,*,#303,.T.);
#384=ORIENTED_EDGE('',*,*,#302,.F.);
#385=ORIENTED_EDGE('',*,*,#303,.F.);
#386=ORIENTED_EDGE('',*,*,#289,.T.);
#387=ORIENTED_EDGE('',*,*,#304,.F.);
#388=ORIENTED_EDGE('',*,*,#305,.T.);
#389=ORIENTED_EDGE('',*,*,#306,.T.);
#390=ORIENTED_EDGE('',*,*,#305,.F.);
#391=ORIENTED_EDGE('',*,*,#306,.F.);
#392=ORIENTED_EDGE('',*,*,#292,.T.);
#393=ORIENTED_EDGE('',*,*,#307,.F.);
#394=ORIENTED_EDGE('',*,*,#308,.T.);
#395=ORIENTED_EDGE('',*,*,#309,.T.);
#396=ORIENTED_EDGE('',*,*,#308,.F.);
#397=ORIENTED_EDGE('',*,*,#309,.F.);
#398=ORIENTED_EDGE('',*,*,#295,.T.);
#399=ORIENTED_EDGE('',*,*,#310,.F.);
#400=ORIENTED_EDGE('',*,*,#311,.T.);
#401=ORIENTED_EDGE('',*,*,#312,.T.);
#402=ORIENTED_EDGE('',*,*,#311,.F.);
#403=ORIENTED_EDGE('',*,*,#312,.F.);
#404=ORIENTED_EDGE('',*,*,#298,.T.);
#405=ORIENTED_EDGE('',*,*,#270,.T.);
#406=ORIENTED_EDGE('',*,*,#288,.F.);
#407=ORIENTED_EDGE('',*,*,#313,.F.);
#408=ORIENTED_EDGE('',*,*,#314,.F.);
#409=ORIENTED_EDGE('',*,*,#315,.F.);
#410=ORIENTED_EDGE('',*,*,#283,.F.);
#411=ORIENTED_EDGE('',*,*,#268,.T.);
#412=ORIENTED_EDGE('',*,*,#277,.T.);
#413=ORIENTED_EDGE('',*,*,#315,.T.);
#414=ORIENTED_EDGE('',*,*,#316,.T.);
#415=ORIENTED_EDGE('',*,*,#317,.F.);
#416=ORIENTED_EDGE('',*,*,#284,.F.);
#417=ORIENTED_EDGE('',*,*,#314,.T.);
#418=ORIENTED_EDGE('',*,*,#318,.T.);
#419=ORIENTED_EDGE('',*,*,#319,.F.);
#420=ORIENTED_EDGE('',*,*,#316,.F.);
#421=ORIENTED_EDGE('',*,*,#313,.T.);
#422=ORIENTED_EDGE('',*,*,#287,.T.);
#423=ORIENTED_EDGE('',*,*,#320,.F.);
#424=ORIENTED_EDGE('',*,*,#318,.F.);
#425=ORIENTED_EDGE('',*,*,#321,.T.);
#426=ORIENTED_EDGE('',*,*,#279,.T.);
#427=ORIENTED_EDGE('',*,*,#322,.F.);
#428=ORIENTED_EDGE('',*,*,#323,.F.);
#429=ORIENTED_EDGE('',*,*,#324,.T.);
#430=ORIENTED_EDGE('',*,*,#323,.T.);
#431=ORIENTED_EDGE('',*,*,#325,.F.);
#432=ORIENTED_EDGE('',*,*,#326,.F.);
#433=ORIENTED_EDGE('',*,*,#327,.T.);
#434=ORIENTED_EDGE('',*,*,#326,.T.);
#435=ORIENTED_EDGE('',*,*,#328,.F.);
#436=ORIENTED_EDGE('',*,*,#281,.F.);
#437=ORIENTED_EDGE('',*,*,#274,.T.);
#438=ORIENTED_EDGE('',*,*,#282,.T.);
#439=ORIENTED_EDGE('',*,*,#328,.T.);
#440=ORIENTED_EDGE('',*,*,#325,.T.);
#441=ORIENTED_EDGE('',*,*,#322,.T.);
#442=ORIENTED_EDGE('',*,*,#278,.T.);
#443=ORIENTED_EDGE('',*,*,#264,.T.);
#444=ORIENTED_EDGE('',*,*,#285,.T.);
#445=ORIENTED_EDGE('',*,*,#317,.T.);
#446=ORIENTED_EDGE('',*,*,#319,.T.);
#447=ORIENTED_EDGE('',*,*,#320,.T.);
#448=ORIENTED_EDGE('',*,*,#286,.T.);
#449=ORIENTED_EDGE('',*,*,#310,.T.);
#450=ORIENTED_EDGE('',*,*,#307,.T.);
#451=ORIENTED_EDGE('',*,*,#304,.T.);
#452=ORIENTED_EDGE('',*,*,#301,.T.);
#453=ORIENTED_EDGE('',*,*,#327,.F.);
#454=ORIENTED_EDGE('',*,*,#280,.F.);
#455=ORIENTED_EDGE('',*,*,#321,.F.);
#456=ORIENTED_EDGE('',*,*,#324,.F.);
#457=ORIENTED_EDGE('',*,*,#300,.T.);
#458=ORIENTED_EDGE('',*,*,#297,.T.);
#459=ORIENTED_EDGE('',*,*,#294,.T.);
#460=ORIENTED_EDGE('',*,*,#291,.T.);
#461=PLANE('',#523);
#462=PLANE('',#524);
#463=PLANE('',#525);
#464=PLANE('',#526);
#465=PLANE('',#527);
#466=PLANE('',#528);
#467=PLANE('',#529);
#468=PLANE('',#545);
#469=PLANE('',#549);
#470=PLANE('',#553);
#471=PLANE('',#557);
#472=PLANE('',#558);
#473=PLANE('',#559);
#474=PLANE('',#560);
#475=PLANE('',#561);
#476=PLANE('',#562);
#477=PLANE('',#563);
#478=PLANE('',#564);
#479=PLANE('',#565);
#480=PLANE('',#566);
#481=ADVANCED_FACE('',(#51),#461,.F.);
#482=ADVANCED_FACE('',(#52),#462,.F.);
#483=ADVANCED_FACE('',(#53),#463,.F.);
#484=ADVANCED_FACE('',(#54),#464,.F.);
#485=ADVANCED_FACE('',(#55),#465,.T.);
#486=ADVANCED_FACE('',(#56),#466,.F.);
#487=ADVANCED_FACE('',(#57),#467,.F.);
#488=ADVANCED_FACE('',(#58),#43,.F.);
#489=ADVANCED_FACE('',(#59),#44,.F.);
#490=ADVANCED_FACE('',(#60),#45,.F.);
#491=ADVANCED_FACE('',(#61),#46,.F.);
#492=ADVANCED_FACE('',(#62),#47,.F.);
#493=ADVANCED_FACE('',(#63,#15),#468,.T.);
#494=ADVANCED_FACE('',(#64),#48,.F.);
#495=ADVANCED_FACE('',(#65,#16),#469,.T.);
#496=ADVANCED_FACE('',(#66),#49,.F.);
#497=ADVANCED_FACE('',(#67,#17),#470,.T.);
#498=ADVANCED_FACE('',(#68),#50,.F.);
#499=ADVANCED_FACE('',(#69,#18),#471,.T.);
#500=ADVANCED_FACE('',(#70),#472,.T.);
#501=ADVANCED_FACE('',(#71),#473,.F.);
#502=ADVANCED_FACE('',(#72),#474,.F.);
#503=ADVANCED_FACE('',(#73),#475,.F.);
#504=ADVANCED_FACE('',(#74),#476,.T.);
#505=ADVANCED_FACE('',(#75),#477,.T.);
#506=ADVANCED_FACE('',(#76),#478,.T.);
#507=ADVANCED_FACE('',(#77,#19,#20,#21,#22),#479,.T.);
#508=ADVANCED_FACE('',(#78,#23,#24,#25,#26),#480,.F.);
#509=CLOSED_SHELL('',(#481,#482,#483,#484,#485,#486,#487,#488,#489,#490,
#491,#492,#493,#494,#495,#496,#497,#498,#499,#500,#501,#502,#503,#504,#505,
#506,#507,#508));
#510=DERIVED_UNIT_ELEMENT(#512,1.);
#511=DERIVED_UNIT_ELEMENT(#851,-3.);
#512=(
MASS_UNIT()
NAMED_UNIT(*)
SI_UNIT(.KILO.,.GRAM.)
);
#513=DERIVED_UNIT((#510,#511));
#514=MEASURE_REPRESENTATION_ITEM('density measure',
POSITIVE_RATIO_MEASURE(7850.),#513);
#515=PROPERTY_DEFINITION_REPRESENTATION(#520,#517);
#516=PROPERTY_DEFINITION_REPRESENTATION(#521,#518);
#517=REPRESENTATION('material name',(#519),#848);
#518=REPRESENTATION('density',(#514),#848);
#519=DESCRIPTIVE_REPRESENTATION_ITEM('Steel','Steel');
#520=PROPERTY_DEFINITION('material property','material name',#858);
#521=PROPERTY_DEFINITION('material property','density of part',#858);
#522=AXIS2_PLACEMENT_3D('',#707,#567,#568);
#523=AXIS2_PLACEMENT_3D('',#708,#569,#570);
#524=AXIS2_PLACEMENT_3D('',#721,#577,#578);
#525=AXIS2_PLACEMENT_3D('',#734,#585,#586);
#526=AXIS2_PLACEMENT_3D('',#737,#589,#590);
#527=AXIS2_PLACEMENT_3D('',#739,#592,#593);
#528=AXIS2_PLACEMENT_3D('',#749,#599,#600);
#529=AXIS2_PLACEMENT_3D('',#755,#604,#605);
#530=AXIS2_PLACEMENT_3D('',#761,#609,#610);
#531=AXIS2_PLACEMENT_3D('',#763,#611,#612);
#532=AXIS2_PLACEMENT_3D('',#766,#614,#615);
#533=AXIS2_PLACEMENT_3D('',#767,#616,#617);
#534=AXIS2_PLACEMENT_3D('',#769,#618,#619);
#535=AXIS2_PLACEMENT_3D('',#772,#621,#622);
#536=AXIS2_PLACEMENT_3D('',#773,#623,#624);
#537=AXIS2_PLACEMENT_3D('',#775,#625,#626);
#538=AXIS2_PLACEMENT_3D('',#778,#628,#629);
#539=AXIS2_PLACEMENT_3D('',#779,#630,#631);
#540=AXIS2_PLACEMENT_3D('',#781,#632,#633);
#541=AXIS2_PLACEMENT_3D('',#784,#635,#636);
#542=AXIS2_PLACEMENT_3D('',#785,#637,#638);
#543=AXIS2_PLACEMENT_3D('',#787,#639,#640);
#544=AXIS2_PLACEMENT_3D('',#790,#642,#643);
#545=AXIS2_PLACEMENT_3D('',#791,#644,#645);
#546=AXIS2_PLACEMENT_3D('',#792,#646,#647);
#547=AXIS2_PLACEMENT_3D('',#794,#648,#649);
#548=AXIS2_PLACEMENT_3D('',#797,#651,#652);
#549=AXIS2_PLACEMENT_3D('',#798,#653,#654);
#550=AXIS2_PLACEMENT_3D('',#799,#655,#656);
#551=AXIS2_PLACEMENT_3D('',#801,#657,#658);
#552=AXIS2_PLACEMENT_3D('',#804,#660,#661);
#553=AXIS2_PLACEMENT_3D('',#805,#662,#663);
#554=AXIS2_PLACEMENT_3D('',#806,#664,#665);
#555=AXIS2_PLACEMENT_3D('',#808,#666,#667);
#556=AXIS2_PLACEMENT_3D('',#811,#669,#670);
#557=AXIS2_PLACEMENT_3D('',#812,#671,#672);
#558=AXIS2_PLACEMENT_3D('',#813,#673,#674);
#559=AXIS2_PLACEMENT_3D('',#819,#678,#679);
#560=AXIS2_PLACEMENT_3D('',#823,#682,#683);
#561=AXIS2_PLACEMENT_3D('',#827,#686,#687);
#562=AXIS2_PLACEMENT_3D('',#829,#689,#690);
#563=AXIS2_PLACEMENT_3D('',#835,#694,#695);
#564=AXIS2_PLACEMENT_3D('',#841,#699,#700);
#565=AXIS2_PLACEMENT_3D('',#844,#703,#704);
#566=AXIS2_PLACEMENT_3D('',#845,#705,#706);
#567=DIRECTION('axis',(0.,0.,1.));
#568=DIRECTION('refdir',(1.,0.,0.));
#569=DIRECTION('center_axis',(1.,0.,0.));
#570=DIRECTION('ref_axis',(0.,0.,1.));
#571=DIRECTION('',(0.,0.,-1.));
#572=DIRECTION('',(0.,-1.,0.));
#573=DIRECTION('',(0.,0.,1.));
#574=DIRECTION('',(0.,-1.,0.));
#575=DIRECTION('',(0.,0.,1.));
#576=DIRECTION('',(0.,-1.,0.));
#577=DIRECTION('center_axis',(-1.,0.,0.));
#578=DIRECTION('ref_axis',(0.,0.,-1.));
#579=DIRECTION('',(0.,0.,1.));
#580=DIRECTION('',(0.,1.,0.));
#581=DIRECTION('',(0.,0.,-1.));
#582=DIRECTION('',(0.,-1.,0.));
#583=DIRECTION('',(0.,0.,-1.));
#584=DIRECTION('',(0.,1.,0.));
#585=DIRECTION('center_axis',(0.,0.,-1.));
#586=DIRECTION('ref_axis',(1.,0.,0.));
#587=DIRECTION('',(1.,0.,0.));
#588=DIRECTION('',(1.,0.,0.));
#589=DIRECTION('center_axis',(0.,-1.,0.));
#590=DIRECTION('ref_axis',(0.,0.,-1.));
#591=DIRECTION('',(-1.,0.,0.));
#592=DIRECTION('center_axis',(0.,1.,0.));
#593=DIRECTION('ref_axis',(-1.,0.,0.));
#594=DIRECTION('',(-1.,0.,0.));
#595=DIRECTION('',(0.,0.,1.));
#596=DIRECTION('',(-1.,0.,0.));
#597=DIRECTION('',(0.,0.,1.));
#598=DIRECTION('',(-1.,0.,0.));
#599=DIRECTION('center_axis',(0.,1.,0.));
#600=DIRECTION('ref_axis',(-1.,0.,0.));
#601=DIRECTION('',(1.,0.,0.));
#602=DIRECTION('',(0.,0.,1.));
#603=DIRECTION('',(1.,0.,0.));
#604=DIRECTION('center_axis',(0.,1.,0.));
#605=DIRECTION('ref_axis',(-1.,0.,0.));
#606=DIRECTION('',(1.,0.,0.));
#607=DIRECTION('',(0.,0.,1.));
#608=DIRECTION('',(1.,0.,0.));
#609=DIRECTION('center_axis',(0.,0.,-1.));
#610=DIRECTION('ref_axis',(-1.,0.,0.));
#611=DIRECTION('center_axis',(0.,0.,-1.));
#612=DIRECTION('ref_axis',(-1.,0.,0.));
#613=DIRECTION('',(0.,0.,-1.));
#614=DIRECTION('center_axis',(0.,0.,1.));
#615=DIRECTION('ref_axis',(-1.,0.,0.));
#616=DIRECTION('center_axis',(0.,0.,-1.));
#617=DIRECTION('ref_axis',(-1.,0.,0.));
#618=DIRECTION('center_axis',(0.,0.,-1.));
#619=DIRECTION('ref_axis',(-1.,0.,0.));
#620=DIRECTION('',(0.,0.,-1.));
#621=DIRECTION('center_axis',(0.,0.,1.));
#622=DIRECTION('ref_axis',(-1.,0.,0.));
#623=DIRECTION('center_axis',(0.,0.,-1.));
#624=DIRECTION('ref_axis',(-1.,0.,0.));
#625=DIRECTION('center_axis',(0.,0.,-1.));
#626=DIRECTION('ref_axis',(-1.,0.,0.));
#627=DIRECTION('',(0.,0.,-1.));
#628=DIRECTION('center_axis',(0.,0.,1.));
#629=DIRECTION('ref_axis',(-1.,0.,0.));
#630=DIRECTION('center_axis',(0.,0.,-1.));
#631=DIRECTION('ref_axis',(-1.,0.,0.));
#632=DIRECTION('center_axis',(0.,0.,-1.));
#633=DIRECTION('ref_axis',(-1.,0.,0.));
#634=DIRECTION('',(0.,0.,-1.));
#635=DIRECTION('center_axis',(0.,0.,1.));
#636=DIRECTION('ref_axis',(-1.,0.,0.));
#637=DIRECTION('center_axis',(0.,0.,-1.));
#638=DIRECTION('ref_axis',(-1.,0.,0.));
#639=DIRECTION('center_axis',(0.,0.,-1.));
#640=DIRECTION('ref_axis',(-1.,0.,0.));
#641=DIRECTION('',(0.,0.,-1.));
#642=DIRECTION('center_axis',(0.,0.,-1.));
#643=DIRECTION('ref_axis',(-1.,0.,0.));
#644=DIRECTION('center_axis',(0.,0.,1.));
#645=DIRECTION('ref_axis',(-1.,0.,0.));
#646=DIRECTION('center_axis',(0.,0.,-1.));
#647=DIRECTION('ref_axis',(-1.,0.,0.));
#648=DIRECTION('center_axis',(0.,0.,-1.));
#649=DIRECTION('ref_axis',(-1.,0.,0.));
#650=DIRECTION('',(0.,0.,-1.));
#651=DIRECTION('center_axis',(0.,0.,-1.));
#652=DIRECTION('ref_axis',(-1.,0.,0.));
#653=DIRECTION('center_axis',(0.,0.,1.));
#654=DIRECTION('ref_axis',(-1.,0.,0.));
#655=DIRECTION('center_axis',(0.,0.,-1.));
#656=DIRECTION('ref_axis',(-1.,0.,0.));
#657=DIRECTION('center_axis',(0.,0.,-1.));
#658=DIRECTION('ref_axis',(-1.,0.,0.));
#659=DIRECTION('',(0.,0.,-1.));
#660=DIRECTION('center_axis',(0.,0.,-1.));
#661=DIRECTION('ref_axis',(-1.,0.,0.));
#662=DIRECTION('center_axis',(0.,0.,1.));
#663=DIRECTION('ref_axis',(-1.,0.,0.));
#664=DIRECTION('center_axis',(0.,0.,-1.));
#665=DIRECTION('ref_axis',(-1.,0.,0.));
#666=DIRECTION('center_axis',(0.,0.,-1.));
#667=DIRECTION('ref_axis',(-1.,0.,0.));
#668=DIRECTION('',(0.,0.,-1.));
#669=DIRECTION('center_axis',(0.,0.,-1.));
#670=DIRECTION('ref_axis',(-1.,0.,0.));
#671=DIRECTION('center_axis',(0.,0.,1.));
#672=DIRECTION('ref_axis',(-1.,0.,0.));
#673=DIRECTION('center_axis',(0.,0.,1.));
#674=DIRECTION('ref_axis',(1.,0.,0.));
#675=DIRECTION('',(0.,1.,0.));
#676=DIRECTION('',(-1.,0.,0.));
#677=DIRECTION('',(0.,-1.,0.));
#678=DIRECTION('center_axis',(1.,0.,0.));
#679=DIRECTION('ref_axis',(0.,1.,0.));
#680=DIRECTION('',(0.,0.,1.));
#681=DIRECTION('',(0.,-1.,0.));
#682=DIRECTION('center_axis',(0.,-1.,0.));
#683=DIRECTION('ref_axis',(1.,0.,0.));
#684=DIRECTION('',(0.,0.,1.));
#685=DIRECTION('',(-1.,0.,0.));
#686=DIRECTION('center_axis',(-1.,0.,0.));
#687=DIRECTION('ref_axis',(0.,-1.,0.));
#688=DIRECTION('',(0.,1.,0.));
#689=DIRECTION('center_axis',(1.,0.,0.));
#690=DIRECTION('ref_axis',(0.,1.,0.));
#691=DIRECTION('',(0.,1.,0.));
#692=DIRECTION('',(0.,1.,0.));
#693=DIRECTION('',(0.,0.,1.));
#694=DIRECTION('center_axis',(0.,-1.,0.));
#695=DIRECTION('ref_axis',(1.,0.,0.));
#696=DIRECTION('',(1.,0.,0.));
#697=DIRECTION('',(1.,0.,0.));
#698=DIRECTION('',(0.,0.,1.));
#699=DIRECTION('center_axis',(-1.,0.,0.));
#700=DIRECTION('ref_axis',(0.,-1.,0.));
#701=DIRECTION('',(0.,-1.,0.));
#702=DIRECTION('',(0.,-1.,0.));
#703=DIRECTION('center_axis',(0.,0.,1.));
#704=DIRECTION('ref_axis',(1.,0.,0.));
#705=DIRECTION('center_axis',(0.,0.,1.));
#706=DIRECTION('ref_axis',(1.,0.,0.));
#707=CARTESIAN_POINT('',(0.,0.,0.));
#708=CARTESIAN_POINT('Origin',(37.5049998509884,108.899999850988,0.999999999999999));
#709=CARTESIAN_POINT('',(37.5049998509884,98.9,13.));
#710=CARTESIAN_POINT('',(37.5049998509884,98.9,3.));
#711=CARTESIAN_POINT('',(37.5049998509884,98.9,0.499999999999999));
#712=CARTESIAN_POINT('',(37.5049998509884,108.899999850988,13.));
#713=CARTESIAN_POINT('',(37.5049998509884,79.1749998509884,13.));
#714=CARTESIAN_POINT('',(37.5049998509884,108.899999850988,0.999999999999999));
#715=CARTESIAN_POINT('',(37.5049998509884,108.899999850988,0.499999999999999));
#716=CARTESIAN_POINT('',(37.5049998509884,95.8999998509884,0.999999999999999));
#717=CARTESIAN_POINT('',(37.5049998509884,108.899999850988,0.999999999999999));
#718=CARTESIAN_POINT('',(37.5049998509884,95.8999998509884,3.));
#719=CARTESIAN_POINT('',(37.5049998509884,95.8999998509884,0.999999999999999));
#720=CARTESIAN_POINT('',(37.5049998509884,79.1749999254942,3.));
#721=CARTESIAN_POINT('Origin',(21.5049998509884,108.899999850988,13.));
#722=CARTESIAN_POINT('',(21.5049998509884,98.9,3.));
#723=CARTESIAN_POINT('',(21.5049998509884,98.9,13.));
#724=CARTESIAN_POINT('',(21.5049998509884,98.9,6.5));
#725=CARTESIAN_POINT('',(21.5049998509884,95.8999998509884,3.));
#726=CARTESIAN_POINT('',(21.5049998509884,79.1749999254942,3.));
#727=CARTESIAN_POINT('',(21.5049998509884,95.8999998509884,0.999999999999999));
#728=CARTESIAN_POINT('',(21.5049998509884,95.8999998509884,13.));
#729=CARTESIAN_POINT('',(21.5049998509884,108.899999850988,0.999999999999999));
#730=CARTESIAN_POINT('',(21.5049998509884,108.899999850988,0.999999999999999));
#731=CARTESIAN_POINT('',(21.5049998509884,108.899999850988,13.));
#732=CARTESIAN_POINT('',(21.5049998509884,108.899999850988,6.5));
#733=CARTESIAN_POINT('',(21.5049998509884,79.1749998509884,13.));
#734=CARTESIAN_POINT('Origin',(21.5049998509884,108.899999850988,0.999999999999999));
#735=CARTESIAN_POINT('',(47.3274998509884,108.899999850988,0.999999999999999));
#736=CARTESIAN_POINT('',(21.5049998509884,95.8999998509884,0.999999999999999));
#737=CARTESIAN_POINT('Origin',(29.5049998509884,95.8999998509884,7.));
#738=CARTESIAN_POINT('',(30.5399999254942,95.8999998509884,3.));
#739=CARTESIAN_POINT('Origin',(73.1499998509884,108.899999850988,0.));
#740=CARTESIAN_POINT('',(73.1499998509884,108.899999850988,13.));
#741=CARTESIAN_POINT('',(73.1499998509884,108.899999850988,13.));
#742=CARTESIAN_POINT('',(73.1499998509884,108.899999850988,0.));
#743=CARTESIAN_POINT('',(73.1499998509884,108.899999850988,0.));
#744=CARTESIAN_POINT('',(-10.0000001490116,108.899999850988,0.));
#745=CARTESIAN_POINT('',(73.1499998509884,108.899999850988,0.));
#746=CARTESIAN_POINT('',(-10.0000001490116,108.899999850988,13.));
#747=CARTESIAN_POINT('',(-10.0000001490116,108.899999850988,0.));
#748=CARTESIAN_POINT('',(73.1499998509884,108.899999850988,13.));
#749=CARTESIAN_POINT('Origin',(63.15,98.9,0.));
#750=CARTESIAN_POINT('',(63.15,98.9,3.));
#751=CARTESIAN_POINT('',(47.3625,98.9,3.));
#752=CARTESIAN_POINT('',(63.15,98.9,13.));
#753=CARTESIAN_POINT('',(63.15,98.9,0.));
#754=CARTESIAN_POINT('',(47.3624999254942,98.9,13.));
#755=CARTESIAN_POINT('Origin',(63.15,98.9,0.));
#756=CARTESIAN_POINT('',(0.,98.9,13.));
#757=CARTESIAN_POINT('',(47.3624999254942,98.9,13.));
#758=CARTESIAN_POINT('',(0.,98.9,3.));
#759=CARTESIAN_POINT('',(0.,98.9,0.));
#760=CARTESIAN_POINT('',(47.3625,98.9,3.));
#761=CARTESIAN_POINT('Origin',(-5.00000007450581,103.899999850988,13.));
#762=CARTESIAN_POINT('',(-3.30000007450581,103.899999850988,8.5));
#763=CARTESIAN_POINT('Origin',(-5.00000007450581,103.899999850988,8.5));
#764=CARTESIAN_POINT('',(-3.30000007450581,103.899999850988,0.));
#765=CARTESIAN_POINT('',(-3.30000007450581,103.899999850988,13.));
#766=CARTESIAN_POINT('Origin',(-5.00000007450581,103.899999850988,0.));
#767=CARTESIAN_POINT('Origin',(68.1499998509884,-5.00000007450581,13.));
#768=CARTESIAN_POINT('',(69.8499998509884,-5.00000007450581,8.5));
#769=CARTESIAN_POINT('Origin',(68.1499998509884,-5.00000007450581,8.5));
#770=CARTESIAN_POINT('',(69.8499998509884,-5.00000007450581,0.));
#771=CARTESIAN_POINT('',(69.8499998509884,-5.00000007450581,13.));
#772=CARTESIAN_POINT('Origin',(68.1499998509884,-5.00000007450581,0.));
#773=CARTESIAN_POINT('Origin',(68.1499998509884,103.899999850988,13.));
#774=CARTESIAN_POINT('',(69.8499998509884,103.899999850988,8.5));
#775=CARTESIAN_POINT('Origin',(68.1499998509884,103.899999850988,8.5));
#776=CARTESIAN_POINT('',(69.8499998509884,103.899999850988,0.));
#777=CARTESIAN_POINT('',(69.8499998509884,103.899999850988,13.));
#778=CARTESIAN_POINT('Origin',(68.1499998509884,103.899999850988,0.));
#779=CARTESIAN_POINT('Origin',(-5.00000007450581,-5.00000007450581,13.));
#780=CARTESIAN_POINT('',(-3.30000007450581,-5.00000007450581,8.5));
#781=CARTESIAN_POINT('Origin',(-5.00000007450581,-5.00000007450581,8.5));
#782=CARTESIAN_POINT('',(-3.30000007450581,-5.00000007450581,0.));
#783=CARTESIAN_POINT('',(-3.30000007450581,-5.00000007450581,13.));
#784=CARTESIAN_POINT('Origin',(-5.00000007450581,-5.00000007450581,0.));
#785=CARTESIAN_POINT('Origin',(-5.00000007450581,103.899999850988,13.));
#786=CARTESIAN_POINT('',(-2.75000007450581,103.899999850988,13.));
#787=CARTESIAN_POINT('Origin',(-5.00000007450581,103.899999850988,13.));
#788=CARTESIAN_POINT('',(-2.75000007450581,103.899999850988,8.5));
#789=CARTESIAN_POINT('',(-2.75000007450581,103.899999850988,13.));
#790=CARTESIAN_POINT('Origin',(-5.00000007450581,103.899999850988,8.5));
#791=CARTESIAN_POINT('Origin',(-5.00000007450581,103.899999850988,8.5));
#792=CARTESIAN_POINT('Origin',(68.1499998509884,-5.00000007450581,13.));
#793=CARTESIAN_POINT('',(70.3999998509884,-5.00000007450581,13.));
#794=CARTESIAN_POINT('Origin',(68.1499998509884,-5.00000007450581,13.));
#795=CARTESIAN_POINT('',(70.3999998509884,-5.00000007450581,8.5));
#796=CARTESIAN_POINT('',(70.3999998509884,-5.00000007450581,13.));
#797=CARTESIAN_POINT('Origin',(68.1499998509884,-5.00000007450581,8.5));
#798=CARTESIAN_POINT('Origin',(68.1499998509884,-5.00000007450581,8.5));
#799=CARTESIAN_POINT('Origin',(68.1499998509884,103.899999850988,13.));
#800=CARTESIAN_POINT('',(70.3999998509884,103.899999850988,13.));
#801=CARTESIAN_POINT('Origin',(68.1499998509884,103.899999850988,13.));
#802=CARTESIAN_POINT('',(70.3999998509884,103.899999850988,8.5));
#803=CARTESIAN_POINT('',(70.3999998509884,103.899999850988,13.));
#804=CARTESIAN_POINT('Origin',(68.1499998509884,103.899999850988,8.5));
#805=CARTESIAN_POINT('Origin',(68.1499998509884,103.899999850988,8.5));
#806=CARTESIAN_POINT('Origin',(-5.00000007450581,-5.00000007450581,13.));
#807=CARTESIAN_POINT('',(-2.75000007450581,-5.00000007450581,13.));
#808=CARTESIAN_POINT('Origin',(-5.00000007450581,-5.00000007450581,13.));
#809=CARTESIAN_POINT('',(-2.75000007450581,-5.00000007450581,8.5));
#810=CARTESIAN_POINT('',(-2.75000007450581,-5.00000007450581,13.));
#811=CARTESIAN_POINT('Origin',(-5.00000007450581,-5.00000007450581,8.5));
#812=CARTESIAN_POINT('Origin',(-5.00000007450581,-5.00000007450581,8.5));
#813=CARTESIAN_POINT('Origin',(31.575,49.45,3.));
#814=CARTESIAN_POINT('',(0.,0.,3.));
#815=CARTESIAN_POINT('',(0.,74.175,3.));
#816=CARTESIAN_POINT('',(63.15,0.,3.));
#817=CARTESIAN_POINT('',(15.7875,0.,3.));
#818=CARTESIAN_POINT('',(63.15,24.725,3.));
#819=CARTESIAN_POINT('Origin',(63.15,0.,0.));
#820=CARTESIAN_POINT('',(63.15,0.,13.));
#821=CARTESIAN_POINT('',(63.15,0.,0.));
#822=CARTESIAN_POINT('',(63.15,24.7249999254942,13.));
#823=CARTESIAN_POINT('Origin',(0.,0.,0.));
#824=CARTESIAN_POINT('',(0.,0.,13.));
#825=CARTESIAN_POINT('',(0.,0.,0.));
#826=CARTESIAN_POINT('',(15.7874999254942,0.,13.));
#827=CARTESIAN_POINT('Origin',(0.,98.9,0.));
#828=CARTESIAN_POINT('',(0.,74.1749999254942,13.));
#829=CARTESIAN_POINT('Origin',(73.1499998509884,-10.0000001490116,0.));
#830=CARTESIAN_POINT('',(73.1499998509884,-10.0000001490116,0.));
#831=CARTESIAN_POINT('',(73.1499998509884,-10.0000001490116,0.));
#832=CARTESIAN_POINT('',(73.1499998509884,-10.0000001490116,13.));
#833=CARTESIAN_POINT('',(73.1499998509884,-10.0000001490116,13.));
#834=CARTESIAN_POINT('',(73.1499998509884,-10.0000001490116,0.));
#835=CARTESIAN_POINT('Origin',(-10.0000001490116,-10.0000001490116,0.));
#836=CARTESIAN_POINT('',(-10.0000001490116,-10.0000001490116,0.));
#837=CARTESIAN_POINT('',(-10.0000001490116,-10.0000001490116,0.));
#838=CARTESIAN_POINT('',(-10.0000001490116,-10.0000001490116,13.));
#839=CARTESIAN_POINT('',(-10.0000001490116,-10.0000001490116,13.));
#840=CARTESIAN_POINT('',(-10.0000001490116,-10.0000001490116,0.));
#841=CARTESIAN_POINT('Origin',(-10.0000001490116,108.899999850988,0.));
#842=CARTESIAN_POINT('',(-10.0000001490116,108.899999850988,0.));
#843=CARTESIAN_POINT('',(-10.0000001490116,108.899999850988,13.));
#844=CARTESIAN_POINT('Origin',(31.5749998509884,49.4499998509884,13.));
#845=CARTESIAN_POINT('Origin',(31.5749998509884,49.4499998509884,0.));
#846=UNCERTAINTY_MEASURE_WITH_UNIT(LENGTH_MEASURE(0.01),#850,
'DISTANCE_ACCURACY_VALUE',
'Maximum model space distance between geometric entities at asserted c
onnectivities');
#847=UNCERTAINTY_MEASURE_WITH_UNIT(LENGTH_MEASURE(0.01),#850,
'DISTANCE_ACCURACY_VALUE',
'Maximum model space distance between geometric entities at asserted c
onnectivities');
#848=(
GEOMETRIC_REPRESENTATION_CONTEXT(3)
GLOBAL_UNCERTAINTY_ASSIGNED_CONTEXT((#846))
GLOBAL_UNIT_ASSIGNED_CONTEXT((#850,#852,#853))
REPRESENTATION_CONTEXT('','3D')
);
#849=(
GEOMETRIC_REPRESENTATION_CONTEXT(3)
GLOBAL_UNCERTAINTY_ASSIGNED_CONTEXT((#847))
GLOBAL_UNIT_ASSIGNED_CONTEXT((#850,#852,#853))
REPRESENTATION_CONTEXT('','3D')
);
#850=(
LENGTH_UNIT()
NAMED_UNIT(*)
SI_UNIT(.MILLI.,.METRE.)
);
#851=(
LENGTH_UNIT()
NAMED_UNIT(*)
SI_UNIT($,.METRE.)
);
#852=(
NAMED_UNIT(*)
PLANE_ANGLE_UNIT()
SI_UNIT($,.RADIAN.)
);
#853=(
NAMED_UNIT(*)
SI_UNIT($,.STERADIAN.)
SOLID_ANGLE_UNIT()
);
#854=SHAPE_DEFINITION_REPRESENTATION(#855,#856);
#855=PRODUCT_DEFINITION_SHAPE('',$,#858);
#856=SHAPE_REPRESENTATION('',(#522),#848);
#857=PRODUCT_DEFINITION_CONTEXT('part definition',#862,'design');
#858=PRODUCT_DEFINITION('2026-09-12-20-33-59-199',
'badpad case heavily ai assisted',#859,#857);
#859=PRODUCT_DEFINITION_FORMATION('',$,#864);
#860=PRODUCT_RELATED_PRODUCT_CATEGORY('badpad case heavily ai assisted',
'badpad case heavily ai assisted',(#864));
#861=APPLICATION_PROTOCOL_DEFINITION('international standard',
'automotive_design',2009,#862);
#862=APPLICATION_CONTEXT(
'Core Data for Automotive Mechanical Design Process');
#863=PRODUCT_CONTEXT('part definition',#862,'mechanical');
#864=PRODUCT('2026-09-12-20-33-59-199',
'badpad case heavily ai assisted',$,(#863));
#865=PRESENTATION_STYLE_ASSIGNMENT((#866));
#866=SURFACE_STYLE_USAGE(.BOTH.,#867);
#867=SURFACE_SIDE_STYLE('',(#868));
#868=SURFACE_STYLE_FILL_AREA(#869);
#869=FILL_AREA_STYLE('Steel - Satin',(#870));
#870=FILL_AREA_STYLE_COLOUR('Steel - Satin',#871);
#871=COLOUR_RGB('Steel - Satin',0.627450980392157,0.627450980392157,0.627450980392157);
ENDSEC;
END-ISO-10303-21;
